<svg width="1346" height="797" viewBox="0 0 1346 797" fill="none" xmlns="http://www.w3.org/2000/svg">
<path fill-rule="evenodd" clip-rule="evenodd" d="M1155 0C1177.09 2.77032e-06 1195 17.9086 1195 40V643C1195 665.091 1177.09 683 1155 683H749C726.909 683 709 665.091 709 643V40C709 17.9086 726.909 0 749 0H1155ZM823 74C800.909 74 783 91.9086 783 114V569C783 591.091 800.909 609 823 609H1081C1103.09 609 1121 591.091 1121 569V114C1121 91.9086 1103.09 74 1081 74H823Z" fill="#311FAE"/>
<path d="M595 0C617.091 2.80682e-06 635 18.1446 635 40.5271V174.754C635 195.189 618.435 211.754 598 211.754C577.565 211.754 561 195.189 561 174.754V115.502C561 93.1197 543.091 74.9751 521 74.9751H263C240.909 74.9751 223 93.1197 223 115.502V576.498C223 598.88 240.909 617.025 263 617.025H521C543.091 617.025 561 598.88 561 576.498V517.246C561 496.811 577.565 480.246 598 480.246C618.435 480.246 635 496.811 635 517.246V651.473C635 673.855 617.091 692 595 692H189C166.909 692 149 673.855 149 651.473V40.5271C149 18.1446 166.909 0 189 0H595Z" fill="#311FAE"/>
<path d="M74 690.517C74 712.609 91.9086 730.517 114 730.517H595C617.091 730.517 635 746.607 635 766.454V797H40C17.9086 797 9.65645e-07 780.911 0 761.063V151.937C1.19576e-05 132.089 17.9086 116 40 116H74V690.517Z" fill="#3A25CE"/>
<path d="M1272 690.517C1272 712.609 1254.09 730.517 1232 730.517H751C728.909 730.517 711 746.607 711 766.454V797H1306C1328.09 797 1346 780.911 1346 761.063V151.937C1346 132.089 1328.09 116 1306 116H1272V690.517Z" fill="#3A25CE"/>
</svg>
