<svg width="1346" height="1143" viewBox="0 0 1346 1143" fill="none" xmlns="http://www.w3.org/2000/svg">
<path fill-rule="evenodd" clip-rule="evenodd" d="M1155 0C1177.09 2.77032e-06 1195 17.9086 1195 40V643C1195 665.091 1177.09 683 1155 683H749C726.909 683 709 665.091 709 643V40C709 17.9086 726.909 0 749 0H1155ZM823 74C800.909 74 783 91.9086 783 114V569C783 591.091 800.909 609 823 609H1081C1103.09 609 1121 591.091 1121 569V114C1121 91.9086 1103.09 74 1081 74H823Z" fill="white"/>
<path d="M595 0C617.091 2.80682e-06 635 18.1446 635 40.5271V174.754C635 195.189 618.435 211.754 598 211.754C577.565 211.754 561 195.189 561 174.754V115.502C561 93.1197 543.091 74.9751 521 74.9751H263C240.909 74.9751 223 93.1197 223 115.502V576.498C223 598.88 240.909 617.025 263 617.025H521C543.091 617.025 561 598.88 561 576.498V517.246C561 496.811 577.565 480.246 598 480.246C618.435 480.246 635 496.811 635 517.246V651.473C635 673.855 617.091 692 595 692H189C166.909 692 149 673.855 149 651.473V40.5271C149 18.1446 166.909 0 189 0H595Z" fill="white"/>
<path d="M74 690.517C74 712.609 91.9086 730.517 114 730.517H595C617.091 730.517 635 746.607 635 766.454V797H40C17.9086 797 9.65645e-07 780.911 0 761.063V151.937C1.19576e-05 132.089 17.9086 116 40 116H74V690.517Z" fill="#F6F9FC"/>
<path d="M1272 690.517C1272 712.609 1254.09 730.517 1232 730.517H751C728.909 730.517 711 746.607 711 766.454V797H1306C1328.09 797 1346 780.911 1346 761.063V151.937C1346 132.089 1328.09 116 1306 116H1272V690.517Z" fill="#F6F9FC"/>
<path d="M113.877 917C119.468 917 124 921.589 124 927.249V961.186C124 966.358 119.808 970.551 114.636 970.551C109.464 970.551 105.272 966.358 105.272 961.186V946.209C105.272 940.549 100.739 935.96 95.1481 935.96H29.8519C24.2608 935.96 19.7284 940.549 19.7284 946.209V1062.79C19.7284 1068.45 24.2608 1073.04 29.8519 1073.04H95.1481C100.739 1073.04 105.272 1068.45 105.272 1062.79V1047.81C105.272 1042.64 109.464 1038.45 114.636 1038.45C119.808 1038.45 124 1042.64 124 1047.81V1081.75C124 1087.41 119.468 1092 113.877 1092H11.1235C5.53243 1092 1 1087.41 1 1081.75V927.249C1 921.589 5.53243 917 11.1235 917H113.877Z" fill="#F6F9FC"/>
<path d="M161.84 1092C157 1092 152.527 1090.83 148.42 1088.48C144.46 1085.99 141.233 1082.76 138.74 1078.8C136.393 1074.69 135.22 1070.22 135.22 1065.38V991.02C135.22 986.18 136.393 981.78 138.74 977.82C141.233 973.713 144.46 970.487 148.42 968.14C152.527 965.647 157 964.4 161.84 964.4H238.4C243.387 964.4 247.86 965.647 251.82 968.14C255.927 970.487 259.153 973.713 261.5 977.82C263.993 981.78 265.24 986.18 265.24 991.02V1065.38C265.24 1070.22 263.993 1074.69 261.5 1078.8C259.153 1082.76 255.927 1085.99 251.82 1088.48C247.86 1090.83 243.387 1092 238.4 1092H161.84ZM161.84 1073.96H238.4C240.747 1073.96 242.727 1073.15 244.34 1071.54C246.1 1069.78 246.98 1067.73 246.98 1065.38V991.02C246.98 988.673 246.1 986.693 244.34 985.08C242.727 983.32 240.747 982.44 238.4 982.44H161.84C159.493 982.44 157.44 983.32 155.68 985.08C154.067 986.693 153.26 988.673 153.26 991.02V1065.38C153.26 1067.73 154.067 1069.78 155.68 1071.54C157.44 1073.15 159.493 1073.96 161.84 1073.96Z" fill="#F6F9FC"/>
<path d="M289.382 1092V964.4H392.782C397.622 964.4 402.022 965.647 405.982 968.14C410.088 970.487 413.315 973.713 415.662 977.82C418.155 981.78 419.402 986.18 419.402 991.02V1092H401.362V991.02C401.362 988.673 400.482 986.693 398.722 985.08C397.108 983.32 395.128 982.44 392.782 982.44H316.222C313.875 982.44 311.822 983.32 310.062 985.08C308.302 986.693 307.422 988.673 307.422 991.02V1092H289.382Z" fill="#F6F9FC"/>
<path d="M446.745 1092V1020.61V949.22C446.745 944.233 447.918 939.76 450.265 935.8C452.612 931.693 455.765 928.467 459.725 926.12C463.832 923.773 468.378 922.6 473.365 922.6H520.005V940.64H473.365C471.018 940.64 468.965 941.52 467.205 943.28C465.592 944.893 464.785 946.873 464.785 949.22V964.4H520.005V982.44H464.785V1092H446.745Z" fill="#F6F9FC"/>
<path d="M540.515 1092V964.4H558.555V1028.2V1092H540.515ZM540.515 940.64V922.6H558.555V940.64H540.515Z" fill="#F6F9FC"/>
<path d="M611.137 1092C606.15 1092 601.603 1090.83 597.497 1088.48C593.537 1085.99 590.31 1082.76 587.817 1078.8C585.47 1074.69 584.297 1070.22 584.297 1065.38V991.02C584.297 986.18 585.47 981.78 587.817 977.82C590.31 973.713 593.537 970.487 597.497 968.14C601.603 965.647 606.15 964.4 611.137 964.4H696.277V922.6H714.317V1092H611.137ZM611.137 1073.96H687.697C690.043 1073.96 692.023 1073.15 693.637 1071.54C695.397 1069.78 696.277 1067.73 696.277 1065.38V991.02C696.277 988.673 695.397 986.693 693.637 985.08C692.023 983.32 690.043 982.44 687.697 982.44H611.137C608.79 982.44 606.737 983.32 604.977 985.08C603.363 986.693 602.557 988.673 602.557 991.02V1065.38C602.557 1067.73 603.363 1069.78 604.977 1071.54C606.737 1073.15 608.79 1073.96 611.137 1073.96Z" fill="#F6F9FC"/>
<path d="M763.918 1092C759.078 1092 754.605 1090.83 750.498 1088.48C746.538 1085.99 743.311 1082.76 740.818 1078.8C738.471 1074.69 737.298 1070.22 737.298 1065.38V991.02C737.298 986.18 738.471 981.78 740.818 977.82C743.311 973.713 746.538 970.487 750.498 968.14C754.605 965.647 759.078 964.4 763.918 964.4H840.478C845.465 964.4 849.938 965.647 853.898 968.14C858.005 970.487 861.231 973.713 863.578 977.82C866.071 981.78 867.318 986.18 867.318 991.02V1037.22H755.338V1065.38C755.338 1067.73 756.145 1069.78 757.758 1071.54C759.518 1073.15 761.571 1073.96 763.918 1073.96H867.318V1092H763.918ZM755.338 1019.18H849.058V991.02C849.058 988.673 848.178 986.693 846.418 985.08C844.805 983.32 842.825 982.44 840.478 982.44H763.918C761.571 982.44 759.518 983.32 757.758 985.08C756.145 986.693 755.338 988.673 755.338 991.02V1019.18Z" fill="#F6F9FC"/>
<path d="M894.682 1092V964.4H998.082C1002.92 964.4 1007.32 965.647 1011.28 968.14C1015.39 970.487 1018.62 973.713 1020.96 977.82C1023.46 981.78 1024.7 986.18 1024.7 991.02V1092H1006.66V991.02C1006.66 988.673 1005.78 986.693 1004.02 985.08C1002.41 983.32 1000.43 982.44 998.082 982.44H921.522C919.176 982.44 917.122 983.32 915.362 985.08C913.602 986.693 912.722 988.673 912.722 991.02V1092H894.682Z" fill="#F6F9FC"/>
<path d="M1078.67 1092C1073.68 1092 1069.13 1090.83 1065.03 1088.48C1061.07 1085.99 1057.91 1082.76 1055.57 1078.8C1053.22 1074.69 1052.05 1070.22 1052.05 1065.38V922.6H1070.09V964.4H1125.31V982.44H1070.09V1065.38C1070.09 1067.73 1070.89 1069.78 1072.51 1071.54C1074.27 1073.15 1076.32 1073.96 1078.67 1073.96H1125.31V1092H1078.67Z" fill="#F6F9FC"/>
<path d="M1173.08 1092C1168.24 1092 1163.77 1090.83 1159.66 1088.48C1155.7 1085.99 1152.47 1082.76 1149.98 1078.8C1147.63 1074.69 1146.46 1070.22 1146.46 1065.38V922.6H1164.5V993.99V1065.38C1164.5 1067.73 1165.31 1069.78 1166.92 1071.54C1168.68 1073.15 1170.73 1073.96 1173.08 1073.96H1194.64V1092H1173.08Z" fill="#F6F9FC"/>
<path d="M1238.59 1142.6V1124.34H1318.23C1320.57 1124.34 1322.55 1123.46 1324.17 1121.7C1325.93 1120.09 1326.81 1118.11 1326.81 1115.76V1092H1241.67C1236.83 1092 1232.35 1090.83 1228.25 1088.48C1224.29 1085.99 1221.06 1082.76 1218.57 1078.8C1216.22 1074.69 1215.05 1070.22 1215.05 1065.38V964.84H1233.09V1065.38C1233.09 1067.73 1233.89 1069.78 1235.51 1071.54C1237.27 1073.15 1239.32 1073.96 1241.67 1073.96H1318.23C1320.57 1073.96 1322.55 1073.15 1324.17 1071.54C1325.93 1069.78 1326.81 1067.73 1326.81 1065.38V964.84H1344.85V1115.76C1344.85 1120.75 1343.67 1125.22 1341.33 1129.18C1338.98 1133.29 1335.75 1136.51 1331.65 1138.86C1327.69 1141.35 1323.21 1142.6 1318.23 1142.6H1238.59Z" fill="#F6F9FC"/>
</svg>
